<svg id="Capa_1" enable-background="new 0 0 512 512" height="512" viewBox="0 0 512 512" width="512" xmlns="http://www.w3.org/2000/svg"><g><g><g><g><path d="m257.644 207 8.352-117.983-10-89.017h-214.825v207z" fill="#c57a44"/><path d="m255.996 0h214.825v207h-214.825z" fill="#ae632c"/></g><g><path d="m258.423 207 7.573-91.867-10-80.282h-177.667v172.149z" fill="#8d562f"/><path d="m255.996 34.851h177.667v172.149h-177.667z" fill="#744727"/></g></g><g><ellipse cx="420.423" cy="236.312" fill="#fd8c02" rx="87.873" ry="87.873" transform="matrix(.497 -.868 .868 .497 6.331 483.55)"/><ellipse cx="91.577" cy="225.253" fill="#fdcb02" rx="87.872" ry="87.873" transform="matrix(.985 -.172 .172 .985 -37.362 19.098)"/><ellipse cx="195.605" cy="241.564" fill="#fdae02" rx="87.873" ry="87.873" transform="matrix(.983 -.185 .185 .983 -41.382 40.438)"/><g><path d="m207.653 187.785c0 34.244 19.691 63.972 48.344 78.465l10-78.465-10-78.465c-28.653 14.493-48.344 44.221-48.344 78.465z" fill="#fdcb02"/><path d="m383.398 187.785c0-48.453-39.42-87.873-87.873-87.873-14.209 0-27.639 3.394-39.528 9.408v156.93c11.889 6.014 25.319 9.408 39.528 9.408 48.453 0 87.873-39.419 87.873-87.873z" fill="#fdae02"/></g></g></g><g><g><path d="m3.704 338.46v53.09l120.713 120.45h131.579l10-97.667-6.534-120.275z" fill="#c57a44"/><path d="m255.996 294.058v217.942h131.843l120.449-120.45v-53.09z" fill="#ae632c"/></g><path d="m236.441 240.267-57.551-10h-175.186v111.96h232.737z" fill="#aaa"/><path d="m283.076 240.267v101.96h225.212v-111.96h-175.185z" fill="#828282"/><path d="m40.524 391.55h-36.82v120.45h120.449v-36.819c0-46.114-37.516-83.631-83.629-83.631z" fill="#fdae02"/><path d="m471.469 391.55c-46.113 0-83.63 37.517-83.63 83.63v36.82h120.449v-120.45z" fill="#fd8c02"/><path d="m178.89 230.267v84.81c0 42.517 34.59 77.106 77.106 77.106l10-83.517-10-78.399z" fill="#cdcdcd"/><path d="m333.103 315.077v-84.81h-77.106v161.916c42.516 0 77.106-34.59 77.106-77.106z" fill="#bebebe"/></g></g></svg>